<?xml version="1.0" encoding="utf-8"?>
<!-- Generator: Adobe Illustrator 27.0.1, SVG Export Plug-In . SVG Version: 6.00 Build 0)  -->
<svg version="1.1" id="Layer_3" xmlns="http://www.w3.org/2000/svg" xmlns:xlink="http://www.w3.org/1999/xlink" x="0px" y="0px"
	 viewBox="0 0 357.2 124" style="enable-background:new 0 0 357.2 124;" xml:space="preserve">
<style type="text/css">
	.st0{fill:#FFFFFF;}
</style>
<g>
	<path class="st0" d="M120.8,72.5l2.6,10.9h0.2l2.7-11.1l18-46.4h10l-29,71.1h-5L90.9,25.8h11L120.8,72.5z"/>
	<path class="st0" d="M163.6,30.8c0-1.5,0.6-2.9,1.8-4.2c1.2-1.2,2.8-1.9,4.7-1.9c1.9,0,3.5,0.6,4.8,1.9c1.3,1.2,1.9,2.6,1.9,4.2
		c0,1.5-0.6,2.9-1.9,4.1c-1.3,1.2-2.9,1.8-4.8,1.8c-1.9,0-3.5-0.6-4.7-1.8C164.2,33.7,163.6,32.4,163.6,30.8z M165.5,43.3h9.2v52.5
		h-9.2V43.3z"/>
	<path class="st0" d="M191.8,69.7c0-4.3,0.6-8.2,1.7-11.7c1.1-3.4,2.8-6.4,5-8.8c2.2-2.4,4.9-4.2,8.1-5.5c3.2-1.3,6.8-1.9,10.9-1.9
		c4.3,0,8,0.7,11.2,2.1c3.2,1.4,5.9,3.4,8,5.9c2.1,2.5,3.7,5.4,4.8,8.8c1,3.4,1.6,7.1,1.6,11.1c0,4.3-0.6,8.1-1.8,11.5
		c-1.2,3.4-2.8,6.3-5,8.7c-2.2,2.4-4.8,4.2-8,5.5c-3.2,1.3-6.8,1.9-10.8,1.9c-4.4,0-8.2-0.7-11.4-2.1c-3.2-1.4-5.9-3.3-8-5.8
		c-2.1-2.5-3.7-5.4-4.7-8.8C192.3,77.3,191.8,73.6,191.8,69.7z M201.8,69.7c0,2.5,0.3,4.9,0.8,7.3c0.6,2.4,1.5,4.5,2.7,6.4
		c1.3,1.9,2.9,3.4,4.8,4.5c2,1.1,4.4,1.7,7.3,1.7c10.3,0,15.4-6.6,15.4-19.8c0-2.6-0.3-5.1-0.8-7.5c-0.6-2.4-1.5-4.5-2.7-6.4
		c-1.2-1.8-2.8-3.3-4.8-4.5c-2-1.1-4.3-1.7-7.1-1.7c-5.1,0-9,1.7-11.7,5C203.1,57.9,201.8,62.9,201.8,69.7z"/>
	<path class="st0" d="M251.4,43.3h8.9V32.7l9.2-2.4v13h15.8v7.8h-15.8V78c0,4.2,0.5,7.2,1.6,8.9c1.1,1.7,2.9,2.6,5.5,2.6
		c1.7,0,3.2-0.2,4.6-0.5c1.4-0.4,2.9-0.9,4.7-1.5l2.1,6.5c-2.1,0.9-4.4,1.7-6.9,2.4c-2.4,0.6-5.1,1-7.9,1c-4.7,0-8-1.3-10-3.8
		c-2-2.5-3-6.7-3-12.4V51.2h-8.9V43.3z"/>
	<path class="st0" d="M297.7,46.6c6-2.9,13.4-4.3,22.3-4.3c4,0,7.2,0.5,9.7,1.6c2.4,1,4.3,2.4,5.7,4c1.3,1.6,2.2,3.4,2.7,5.4
		c0.4,2,0.7,3.9,0.7,5.9c0,3.7-0.1,7.4-0.4,11.1c-0.3,3.7-0.4,7.7-0.4,12.1c0,2.5,0.1,5,0.3,7.4c0.2,2.4,0.6,4.6,1.2,6.6h-6.7
		l-2.5-8h-1c-0.7,1-1.6,2-2.7,3.1c-1.1,1-2.3,2-3.8,2.8c-1.5,0.8-3.2,1.5-5.1,2c-1.9,0.5-4.1,0.8-6.6,0.8c-2.5,0-4.7-0.4-6.8-1.1
		c-2.1-0.7-3.9-1.7-5.4-3c-1.5-1.3-2.7-2.8-3.6-4.7c-0.9-1.8-1.3-3.9-1.3-6.2c0-3,0.7-5.6,2-7.8s3-4,5.1-5.4
		c2.1-1.4,4.4-2.4,7.1-3.1c2.6-0.7,5.3-1,7.9-1c2.1,0,3.8,0,5.3,0.1c1.4,0.1,2.6,0.2,3.6,0.2c1,0.1,1.8,0.2,2.5,0.3
		c0.7,0.1,1.3,0.2,1.8,0.2c0.1-1,0.2-1.9,0.3-2.6c0.1-0.7,0.1-1.7,0.1-2.8c0-1.9-0.2-3.4-0.6-4.7c-0.4-1.3-1.1-2.3-2-3.1
		c-0.9-0.8-2.1-1.3-3.7-1.7c-1.5-0.3-3.4-0.5-5.6-0.5c-1.3,0-2.7,0.1-4.2,0.3c-1.5,0.2-3.1,0.5-4.6,0.9c-1.5,0.4-3.1,0.8-4.6,1.4
		c-1.5,0.5-2.9,1.1-4.1,1.7L297.7,46.6z M329,72.1c-0.5-0.1-1.1-0.2-1.7-0.3c-0.6-0.1-1.3-0.2-2.2-0.3c-0.9-0.1-2-0.1-3.2-0.2
		c-1.2-0.1-2.7-0.1-4.5-0.1c-4.1,0-7.4,0.7-9.8,2.2c-2.4,1.5-3.6,4-3.6,7.5c0,2.7,0.9,4.7,2.8,6c1.9,1.3,4.3,2,7.3,2
		c2.2,0,4.1-0.3,5.8-0.9c1.7-0.6,3.1-1.3,4.4-2.1c1.2-0.8,2.2-1.8,3-2.8c0.8-1,1.3-2.1,1.7-3.1V72.1z"/>
</g>
</svg>
